<svg xmlns="http://www.w3.org/2000/svg" viewBox="0 0 243.68 294.59"><defs><style>.cls-1{fill:#fefcfc;}.cls-1,.cls-2{fill-rule:evenodd;}.cls-2{fill:#fef9f9;}</style></defs><title>KiindredWhite4</title><g id="Layer_2" data-name="Layer 2"><g id="Ebene_1" data-name="Ebene 1"><path class="cls-1" d="M242.51,124.06c1.32,11.25,2,22.47-.71,33.66-4.69,19.15-14.29,35.73-27.7,49.83-25.48,26.8-51.5,53.1-77.34,79.56-9.8,10-19,10-28.89-.15C91.34,270,74.88,253,58.29,236.16c-7.7-7.84-15.76-15.32-23.41-23.21C18.93,196.48,6.71,177.71,2,155c-1.57-7.6-3.23-15.56-.7-23.5.42-1.33,0-2.94,0-4.42,2.28-8.64,3.85-17.42,8.1-25.55,6.76-12.94,16.9-21.91,30-27.74a10.14,10.14,0,0,0,6.26-6.87A110.11,110.11,0,0,1,68.06,26.64c31.38-35.39,77.4-35.54,109-.32,10.84,12.1,18.19,26.2,23.12,41.59.73,2.28,1.39,4.15,4,5.22,20.94,8.68,32.35,25.06,37.27,46.6C241.71,121.19,242.13,122.62,242.51,124.06ZM39.31,96.71a33,33,0,0,0-11,12c-6.56,11.55-8.64,24.14-7.37,37.15,1.9,19.45,11.64,35.3,24.78,49,24.2,25.28,48.84,50.14,73.17,75.29,2.7,2.79,4.17,3,7,.06,23.87-24.67,47.95-49.14,71.87-73.76,10.1-10.39,18.19-22.2,22.84-36,6.53-19.43,4.71-38.08-6.53-55.46-1.79-2.77-3.78-5.72-7.68-7,0,6.27.23,12.07,0,17.86-1.35,28.77-9.71,55-28.79,77.13-30,34.77-75.08,36.1-106.87,3-17.6-18.3-26.56-40.78-30.33-65.57C38.66,119.57,38.82,108.62,39.31,96.71Zm19,10.81c.26,19.54,3.35,36.42,10.87,52.36A89,89,0,0,0,81.5,179.19c23.48,28,58.55,28,82.28.21,2.39-2.8,2.17-4.28-.27-6.88-20.05-21.35-39.91-42.88-59.88-64.31C97.71,101.86,91.33,96,83.81,91.56a30.38,30.38,0,0,0-18.13-4.31c-4,.29-6,1.69-6.2,5.85C59.22,98.59,58.62,104.05,58.34,107.51Zm63.88-87.74a44.79,44.79,0,0,0-23,6.16c-15.49,8.78-25.06,22.49-32,38.44-1.23,2.84-.29,3.47,2.43,3.4,10.8-.3,20.1,3.91,28.79,9.83a106.78,106.78,0,0,1,20.08,17.91c2.75,3.13,4.55,4,7.6.19a84.35,84.35,0,0,1,10.61-10.55c11.37-9.94,23.64-18,39.64-17.39,3.46.13,2.32-1.86,1.61-3.51C172.38,51,164.66,39.31,153.09,30.49,144.11,23.65,134.08,19.61,122.22,19.78Zm54.67,138.39c1-2.4,1.78-4.05,2.42-5.76,6.4-17,8.38-34.51,7.14-52.54-.89-13-3.6-15-16.46-12A30.5,30.5,0,0,0,162.12,91C152.5,96.3,145,104.07,137.59,112c-1.27,1.37-1.32,2.41,0,3.8C150.52,129.72,163.42,143.64,176.89,158.16Z"/><path class="cls-2" d="M101.42,66.17c-8-.06-14.67-4.82-16.25-11.48-.65-2.74-.39-5.16,2.53-6.18s4.71.82,5.49,3.53c1.23,4.24,4.46,5.73,8.34,5.78s7.21-1.52,8.46-5.65c.84-2.77,2.41-4.63,5.4-3.69,3.24,1,3.37,3.75,2.6,6.58C116.18,61.68,109.39,66.23,101.42,66.17Z"/><path class="cls-2" d="M143,66.18c-7.75,0-14.2-4.44-16.17-11-.86-2.85-.79-5.52,2.36-6.67,3-1.09,4.67.74,5.5,3.49,1.26,4.14,4.46,5.79,8.37,5.8,4.11,0,7.37-1.64,8.63-6.09.71-2.49,2.45-4.18,5.24-3.25s3.4,3.22,2.71,6.06C158,61.44,151.28,66.22,143,66.18Z"/></g></g></svg>